<?xml version="1.0" standalone="no"?>
<!DOCTYPE svg PUBLIC "-//W3C//DTD SVG 20010904//EN"
 "http://www.w3.org/TR/2001/REC-SVG-20010904/DTD/svg10.dtd">
<svg version="1.0" xmlns="http://www.w3.org/2000/svg"
 width="546.000000pt" height="457.000000pt" viewBox="0 0 546.000000 457.000000"
 preserveAspectRatio="xMidYMid meet">

<g transform="translate(0.000000,457.000000) scale(0.100000,-0.100000)"
fill="#000000" stroke="none">
<path d="M2535 4319 c-575 -53 -1113 -350 -1458 -802 -69 -92 -181 -266 -174
-273 4 -4 108 -44 114 -44 1 0 22 34 48 76 80 132 154 225 279 350 284 285
601 456 998 540 152 32 448 44 605 25 356 -44 671 -173 969 -397 162 -121 366
-351 475 -535 23 -38 42 -69 44 -69 1 0 28 11 59 25 39 17 55 29 50 38 -4 6
-40 62 -79 122 -209 322 -484 567 -822 735 -349 172 -730 244 -1108 209z"/>
<path d="M2555 3772 c-347 -103 -517 -491 -355 -812 136 -270 484 -385 757
-250 460 227 421 875 -63 1052 -82 30 -254 35 -339 10z m260 -127 c174 -46
302 -189 328 -367 26 -181 -77 -369 -246 -451 -220 -107 -483 -8 -590 220 -28
62 -31 77 -31 173 -1 100 1 108 35 180 94 197 301 297 504 245z"/>
<path d="M4597 3106 c-151 -32 -248 -182 -219 -339 6 -34 8 -65 4 -69 -14 -14
-295 -129 -450 -184 -511 -182 -975 -258 -1413 -233 -409 23 -858 138 -1323
338 -129 55 -131 57 -128 86 14 153 14 180 -7 227 -24 56 -90 126 -146 153
-59 30 -195 28 -252 -3 -209 -110 -216 -402 -13 -516 49 -28 64 -31 136 -31
64 0 91 5 132 24 l51 24 108 -50 c184 -86 483 -195 708 -257 200 -55 517 -111
703 -123 51 -3 94 -9 96 -12 3 -3 -30 -58 -72 -121 -43 -63 -129 -194 -192
-290 -63 -96 -195 -299 -295 -450 -99 -151 -202 -309 -229 -350 l-49 -76 -101
1 c-85 0 -107 -3 -142 -22 -173 -93 -216 -310 -88 -452 60 -67 112 -93 195
-99 87 -6 154 16 216 72 114 103 134 268 46 384 -14 18 -23 38 -20 45 12 32
835 1280 846 1285 4 1 202 -288 440 -644 417 -623 432 -647 416 -667 -91 -124
-84 -276 18 -384 152 -161 424 -100 490 109 21 68 21 96 0 171 -21 76 -90 155
-165 187 -46 20 -64 22 -139 17 l-87 -6 -426 639 c-234 352 -426 643 -426 648
0 5 39 12 88 16 437 35 960 175 1441 388 117 52 135 57 150 45 56 -50 158 -68
243 -43 149 43 237 185 207 336 -32 165 -183 262 -352 226z m-3721 -156 c40
-25 74 -85 74 -130 0 -41 -33 -104 -68 -129 -90 -64 -220 -12 -245 99 -10 41
9 100 44 137 56 57 126 65 195 23z m3882 0 c119 -88 59 -280 -88 -280 -91 0
-151 54 -157 142 -5 65 24 121 77 150 47 26 124 20 168 -12z m-3038 -2249 c43
-31 70 -80 70 -128 0 -55 -20 -94 -66 -130 -30 -22 -46 -27 -90 -27 -145 3
-208 172 -101 272 48 45 135 51 187 13z m2149 2 c50 -38 66 -71 66 -133 0 -44
-5 -66 -21 -87 -53 -71 -153 -89 -218 -39 -52 39 -69 78 -64 143 8 89 80 147
172 138 22 -2 51 -12 65 -22z"/>
<path d="M655 2412 c-3 -3 -5 -71 -5 -151 0 -163 25 -362 65 -513 87 -336 271
-671 496 -905 l51 -53 26 33 c14 17 32 40 40 49 12 15 7 24 -46 81 -315 339
-501 809 -505 1279 l-2 156 -57 14 c-32 8 -60 12 -63 10z"/>
<path d="M4718 2403 l-48 -4 0 -125 c0 -485 -175 -948 -492 -1305 l-85 -95 22
-26 c13 -15 31 -37 40 -50 l16 -23 60 65 c282 305 473 693 539 1096 26 159 31
476 7 472 -7 -1 -33 -3 -59 -5z"/>
<path d="M2020 383 c-14 -27 -26 -51 -28 -54 -8 -16 251 -89 413 -116 152 -25
509 -25 645 0 114 21 303 70 353 90 l36 16 -30 55 -30 55 -72 -25 c-104 -36
-293 -71 -446 -84 -222 -19 -485 11 -713 80 -53 17 -98 30 -100 30 -2 0 -15
-21 -28 -47z"/>
</g>
</svg>
